<svg width="56" height="56" viewBox="0 0 56 56" fill="none" xmlns="http://www.w3.org/2000/svg">
<path d="M9.54897 20.49C10.225 19.831 10.9465 19.3239 11.7133 18.9688C12.496 18.6139 13.3007 18.3867 14.1274 18.2873C14.9618 18.1959 15.8144 18.2282 16.6849 18.3842C17.5633 18.5483 18.4402 18.8158 19.3156 19.1869C18.9714 18.298 18.7303 17.4107 18.5923 16.5248C18.4622 15.6471 18.4547 14.791 18.5699 13.9566C18.6929 13.1303 18.9385 12.3337 19.3066 11.5667C19.6906 10.7999 20.2207 10.087 20.8967 9.42798L22.3453 8.01581C23.4721 6.91745 24.1872 5.74941 24.4907 4.51168C24.8101 3.27419 24.7247 2.04673 24.2345 0.8293L26.3412 0C27.4088 1.34526 28.2069 2.67068 28.7356 3.97625C29.272 5.28989 29.5595 6.5402 29.5979 7.72716C29.6521 8.91436 29.4775 10.0186 29.0739 11.0399C28.6782 12.0693 28.0779 12.9762 27.2731 13.7607L24.6535 16.3144C24.1867 16.7694 23.8103 17.2855 23.5242 17.8626C23.246 18.4478 23.0625 19.0662 22.9737 19.7178C22.9008 20.3697 22.9268 21.0429 23.0517 21.7374C23.1844 22.4401 23.4283 23.1284 23.7836 23.8024C23.1145 23.4344 22.4319 23.1736 21.7358 23.0202C21.0557 22.8669 20.3858 22.8214 19.7264 22.8834C19.0827 22.9457 18.4655 23.1079 17.8745 23.3701C17.2914 23.6403 16.7664 24.0029 16.2996 24.4579L13.6679 27.0234C12.8631 27.8079 11.9423 28.3837 10.9055 28.7509C9.8765 29.126 8.77151 29.2692 7.59052 29.1804C6.41735 29.0996 5.18429 28.7711 3.89132 28.195C2.60617 27.6269 1.30906 26.7879 0 25.678L0.875054 23.6005C2.08156 24.1197 3.30578 24.2371 4.5477 23.9526C5.7894 23.684 6.9736 23.0005 8.10033 21.9021L9.54897 20.49Z" fill="#1E2F38"/>
<path d="M31.0288 39.6735C31.4956 39.2184 31.8681 38.6983 32.1463 38.1132C32.4324 37.5361 32.6118 36.9216 32.6847 36.2697C32.7735 35.6181 32.7514 34.9489 32.6185 34.2622C32.4936 33.5677 32.2576 32.8795 31.9104 32.1976C32.5715 32.5735 33.2461 32.8341 33.9344 32.9795C34.6226 33.1249 35.2885 33.1664 35.9321 33.1041C36.5916 33.042 37.2129 32.8759 37.796 32.6057C38.387 32.3436 38.9158 31.985 39.3826 31.53L42.0023 28.9763C42.8071 28.1917 43.724 27.6119 44.753 27.2367C45.7898 26.8696 46.8987 26.7304 48.0797 26.8193C49.2687 26.9003 50.5058 27.2248 51.7909 27.7929C53.0839 28.3691 54.3849 29.2121 55.694 30.322L54.7951 32.3991C53.5967 31.8721 52.3726 31.7468 51.1228 32.0232C49.889 32.2999 48.7087 32.9874 47.5819 34.0857L46.1333 35.4979C45.4573 36.1569 44.7279 36.6639 43.9451 37.0188C43.1783 37.3739 42.3776 37.5971 41.5432 37.6885C40.7165 37.7879 39.864 37.7556 38.9856 37.5916C38.1151 37.4356 37.2421 37.1721 36.3667 36.801C36.7109 37.6899 36.9481 38.5732 37.0782 39.4509C37.2162 40.3368 37.2237 41.1928 37.1006 42.0191C36.9854 42.8535 36.7358 43.6541 36.3518 44.4209C35.9837 45.1879 35.4616 45.9009 34.7856 46.5599L33.3369 47.9721C32.2102 49.0704 31.4912 50.2344 31.1798 51.4641C30.8682 52.7097 30.9535 53.9451 31.4357 55.1704L29.3528 56C28.2852 54.6547 27.4831 53.3253 26.9467 52.0116C26.418 50.7061 26.1266 49.4597 26.0723 48.2725C26.0181 47.0853 26.1888 45.977 26.5845 44.9477C26.9881 43.9264 27.5923 43.0235 28.3971 42.2389L31.0288 39.6735Z" fill="#1E2F38"/>
<path d="M52.2179 7.27015L52.5285 7.53682L50.5907 15.8183C49.5256 20.3813 48.5493 24.2627 48.431 24.4405C47.8985 25.2553 45.8719 25.8183 45.2062 25.3442C44.9547 25.1516 45.0139 24.8553 46.3896 18.9294C47.1884 15.522 47.8689 12.6331 47.9133 12.5294C47.9428 12.4257 46.4932 13.8331 44.6737 15.6553C42.8542 17.4776 40.5022 19.6998 39.4519 20.5887C29.8072 28.7961 19.2453 34.6331 7.18933 38.4109C5.11837 39.0627 4.03852 39.1813 3.65391 38.7813C3.37285 38.4998 3.37285 38.5146 3.62432 38.0109C3.92018 37.4479 4.70418 37.0479 6.81952 36.4257C17.5885 33.2405 28.9936 26.8257 37.736 19.0479C40.5909 16.4998 45.1027 11.8627 44.4962 12.0998C44.008 12.2924 41.3454 12.7813 39.1856 13.0776C36.6709 13.4331 36.1088 13.359 36.1088 12.6627C36.1088 11.8627 37.4105 11.122 39.0673 10.959C43.7861 10.485 46.3452 9.77386 48.6381 8.24793C50.5611 6.98867 51.5374 6.722 52.2179 7.27015Z" fill="#28868B"/>
</svg>
