<svg width="48" height="58" viewBox="0 0 48 58" fill="none" xmlns="http://www.w3.org/2000/svg">
<path d="M11.8191 21.3507L11.819 21.3507L30.1871 49.1135L30.9412 49.7702C30.9413 49.7701 30.9414 49.77 30.9415 49.7699C33.4933 46.8399 35.3656 43.2442 36.5756 39.0092C37.7783 34.7996 38.3778 30.3878 38.3778 25.7778C38.3778 19.4034 37.4989 14.5801 35.5855 11.4857C33.7075 8.37503 31.0275 6.73334 27.6094 6.73334C24.2954 6.73334 21.2075 8.22344 18.3608 11.0227C15.5759 13.7604 13.4002 17.212 11.8191 21.3507ZM30.5297 55.05L30.5247 55.0522C27.6344 56.3464 24.4513 57 20.9614 57C17.5001 57 14.4929 56.2233 11.9081 54.6987C9.33676 53.1553 7.28475 51.1029 5.7417 48.5311C2.59155 43.2809 1 37.1326 1 30.0515C1 22.9896 2.74051 16.7342 6.20288 11.2548C9.63885 5.88716 14.1564 2.50622 19.7716 1.04116C19.8655 1.0827 19.9614 1.138 20.0595 1.21007C14.476 5.56162 11.0744 11.3845 9.8674 18.6262L11.7959 19.126C13.6431 13.9363 16.3927 9.9443 20.019 7.09509L20.0202 7.09413C23.7095 4.18612 27.6113 2.76374 31.7474 2.76374C35.7953 2.76374 39.2531 4.49653 42.1631 8.09119L42.163 8.09124L42.1714 8.10126C45.0868 11.6082 46.6211 16.7934 46.6211 23.8105C46.6211 30.6933 45.334 36.8545 42.7807 42.3132L42.7807 42.3131L42.7762 42.323C41.4593 45.2202 39.8191 47.7543 37.859 49.933C35.9282 52.0344 33.4919 53.7432 30.5297 55.05ZM20.4484 1.57527C20.4483 1.57528 20.4478 1.57394 20.4472 1.57121C20.4482 1.5739 20.4485 1.57526 20.4484 1.57527Z" fill="#D71E38" stroke="#D71E38" stroke-width="2" stroke-linecap="round"/>
</svg>
