<svg width="20" height="20" viewBox="0 0 20 20" fill="none" xmlns="http://www.w3.org/2000/svg">
<path d="M10 0C15.5228 0 20 4.47715 20 10C20 15.5228 15.5228 20 10 20C4.47715 20 0 15.5228 0 10C0 4.47715 4.47715 0 10 0ZM13.0821 5.32528L10 8.40875L6.91963 5.32528C6.48029 4.88594 5.76798 4.88594 5.32864 5.32528C4.8893 5.76462 4.8893 6.47693 5.32864 6.91627L8.41 10.0013L5.32864 13.0875C4.8893 13.5268 4.8893 14.2391 5.32864 14.6785C5.76798 15.1178 6.48029 15.1178 6.91963 14.6785L10 11.5938L13.0821 14.6785C13.5215 15.1178 14.2338 15.1178 14.6731 14.6785C15.1125 14.2391 15.1125 13.5268 14.6731 13.0875L11.59 10.0013L14.6731 6.91627C15.1125 6.47693 15.1125 5.76462 14.6731 5.32528C14.2338 4.88594 13.5215 4.88594 13.0821 5.32528Z" fill="#25314D"/>
</svg>
