<svg width="31" height="31" viewBox="0 0 31 31" fill="none" xmlns="http://www.w3.org/2000/svg">
<path d="M30.0895 22.5351V27.0513C30.0912 27.4706 30.0054 27.8856 29.8374 28.2697C29.6694 28.6539 29.4231 28.9987 29.1142 29.2821C28.8052 29.5656 28.4405 29.7813 28.0433 29.9157C27.6462 30.05 27.2253 30.0999 26.8078 30.0621C22.1754 29.5588 17.7257 27.9758 13.8161 25.4405C10.1788 23.1292 7.09501 20.0454 4.78371 16.4081C2.23955 12.4808 0.656259 8.00946 0.162121 3.35627C0.124502 2.93997 0.173976 2.52041 0.307393 2.12428C0.44081 1.72816 0.655248 1.36415 0.937052 1.05544C1.21886 0.746729 1.56185 0.500078 1.9442 0.331191C2.32656 0.162304 2.73988 0.0748804 3.15787 0.0744868H7.67408C8.40467 0.0672963 9.11294 0.326007 9.66688 0.802398C10.2208 1.27879 10.5826 1.94035 10.6849 2.66378C10.8755 4.10907 11.229 5.52815 11.7387 6.89396C11.9412 7.43278 11.9851 8.01837 11.865 8.58134C11.7449 9.14431 11.466 9.66106 11.0612 10.0704L9.14938 11.9822C11.2924 15.7511 14.413 18.8716 18.1818 21.0146L20.0937 19.1028C20.503 18.698 21.0197 18.4191 21.5827 18.299C22.1457 18.179 22.7312 18.2228 23.2701 18.4254C24.6359 18.935 26.055 19.2885 27.5002 19.4791C28.2315 19.5823 28.8994 19.9506 29.3768 20.5141C29.8542 21.0775 30.1079 21.7968 30.0895 22.5351Z" fill="#25314D"/>
</svg>
