<svg width="60" height="61" viewBox="0 0 60 61" fill="none" xmlns="http://www.w3.org/2000/svg">
<path d="M59.9981 45.085V54.1354C60.0016 54.9756 59.8295 55.8072 59.4929 56.577C59.1563 57.3468 58.6626 58.0379 58.0435 58.6059C57.4244 59.1738 56.6935 59.6063 55.8976 59.8754C55.1017 60.1446 54.2583 60.2446 53.4216 60.169C44.1384 59.1603 35.2213 55.9881 27.3867 50.9074C20.0976 46.2757 13.9178 40.0958 9.28601 32.8067C4.18758 24.9366 1.01472 15.9761 0.0244863 6.65122C-0.0509016 5.81698 0.0482433 4.97618 0.315607 4.18236C0.582971 3.38854 1.0127 2.65908 1.57742 2.04043C2.14215 1.42179 2.82951 0.927506 3.59573 0.589061C4.36195 0.250616 5.19025 0.0754221 6.02789 0.0746333H15.0782C16.5423 0.0602238 17.9617 0.578673 19.0717 1.53335C20.1818 2.48802 20.9069 3.81378 21.1118 5.2635C21.4938 8.15981 22.2022 11.0036 23.2236 13.7407C23.6294 14.8204 23.7173 15.9939 23.4767 17.1221C23.2361 18.2503 22.6771 19.2858 21.866 20.1061L18.0347 23.9374C22.3292 31.49 28.5827 37.7435 36.1354 42.0381L39.9667 38.2068C40.7869 37.3957 41.8225 36.8367 42.9507 36.5961C44.0788 36.3555 45.2523 36.4433 46.3321 36.8492C49.0692 37.8706 51.913 38.579 54.8093 38.961C56.2747 39.1677 57.6131 39.9058 58.5698 41.035C59.5265 42.1641 60.0349 43.6055 59.9981 45.085Z" fill="#25314D"/>
</svg>
