<svg width="33" height="27" viewBox="0 0 33 27" fill="none" xmlns="http://www.w3.org/2000/svg">
<path d="M4.1499 1.07434H28.1499C29.7999 1.07434 31.1499 2.42434 31.1499 4.07434V22.0743C31.1499 23.7243 29.7999 25.0743 28.1499 25.0743H4.1499C2.4999 25.0743 1.1499 23.7243 1.1499 22.0743V4.07434C1.1499 2.42434 2.4999 1.07434 4.1499 1.07434Z" fill="#25314D"/>
<path d="M31.1499 4.07434L16.1499 14.5741L1.1499 4.07434" fill="#25314D"/>
<path d="M31.1499 4.07434C31.1499 2.42434 29.7999 1.07434 28.1499 1.07434H4.1499C2.4999 1.07434 1.1499 2.42434 1.1499 4.07434M31.1499 4.07434V22.0743C31.1499 23.7243 29.7999 25.0743 28.1499 25.0743H4.1499C2.4999 25.0743 1.1499 23.7243 1.1499 22.0743V4.07434M31.1499 4.07434L16.1499 14.5741L1.1499 4.07434" stroke="#FDFDFD" stroke-width="2" stroke-linecap="round" stroke-linejoin="round"/>
</svg>
