<svg width="48" height="58" viewBox="0 0 48 58" fill="none" xmlns="http://www.w3.org/2000/svg">
<path d="M37.3778 25.7778C37.3778 19.4464 36.4959 14.8561 34.7322 12.007C33.0136 9.1579 30.6394 7.73334 27.6094 7.73334C24.6246 7.73334 21.7754 9.06745 19.062 11.7357C16.3938 14.3587 14.2908 17.6826 12.7532 21.7076C11.2608 25.7326 10.5146 29.8027 10.5146 33.9181C10.5146 39.5712 11.4417 44.2066 13.2959 47.8246C15.1953 51.4425 18.0444 53.2515 21.8433 53.2515C25.009 53.2515 27.7903 51.8721 30.1871 49.1135C32.6292 46.3096 34.4382 42.8499 35.614 38.7345C36.7899 34.6191 37.3778 30.3002 37.3778 25.7778ZM38.5988 50.6058C36.5637 52.8218 34.0086 54.6082 30.9333 55.9649C27.9033 57.3216 24.5793 58 20.9614 58C17.3435 58 14.1552 57.186 11.3965 55.5579C8.68304 53.9298 6.51228 51.7591 4.88421 49.0456C1.62807 43.6187 0 37.2873 0 30.0515C0 22.8156 1.78635 16.3711 5.35906 10.7181C8.977 5.06511 13.7934 1.4924 19.8082 0C20.17 0.0904472 20.5092 0.271344 20.8257 0.542691C21.1875 0.814035 21.391 1.10799 21.4363 1.42456C15.6023 5.67563 12.0749 11.4643 10.8538 18.7906C12.7532 13.4542 15.6023 9.29357 19.4012 6.30877C23.2452 3.27875 27.3606 1.76374 31.7474 1.76374C36.1341 1.76374 39.8651 3.66316 42.9404 7.46199C46.0608 11.2156 47.6211 16.6651 47.6211 23.8105C47.6211 30.8203 46.3095 37.129 43.6865 42.7368C42.3298 45.7216 40.6339 48.3446 38.5988 50.6058Z" fill="#D71E38"/>
</svg>
