<svg width="452" height="476" viewBox="0 0 452 476" fill="white" xmlns="http://www.w3.org/2000/svg">
<path d="M210.042 0.873691C223.04 3.33375 234.857 12.5836 240.667 25.1791C246.674 37.9714 245.394 54.5029 237.417 66.8032C232.592 74.2818 223.73 80.8747 214.966 83.5316C208.663 85.4996 206.202 85.4996 119.841 85.3028L31.2158 85.0076L24.8151 81.8587C8.96101 74.085 0 60.1118 0 43.1866C0 22.719 14.377 4.80976 33.8746 0.972069C40.0784 -0.30716 203.543 -0.307136 210.042 0.873691ZM339.14 0.972069C352.335 3.72733 363.167 12.19 369.075 24.0966C372.226 30.3944 372.719 32.4608 373.113 40.4314C373.507 48.0084 373.31 50.6652 371.537 55.7822C365.235 74.1834 349.676 85.4996 330.573 85.4996C313.635 85.4996 299.751 76.7418 292.07 61.2927C285.472 48.1068 286.457 32.264 294.63 19.6685C304.182 4.90819 322.104 -2.57041 339.14 0.972069ZM61.7423 125.943C68.8324 129.387 77.4979 137.751 80.846 144.344C93.6474 169.437 80.3537 198.859 52.8798 206.141C34.17 211.159 13.3923 201.417 4.52974 183.311C-2.06793 170.027 -1.08319 153.397 7.09003 140.802C18.5129 123.089 42.6386 116.496 61.7423 125.943ZM416.342 122.007C434.067 125.254 447.952 139.129 451.3 156.94C455.14 177.309 442.831 198.072 422.94 205.157L416.244 207.518H290.987C201.869 207.518 164.252 207.223 160.51 206.436C143.278 202.795 129.984 188.625 126.931 170.618C123.091 148.28 140.422 124.861 162.972 122.007C172.721 120.728 409.351 120.728 416.342 122.007ZM215.458 252.291C227.176 253.669 241.159 264.001 246.674 275.416C250.416 283.19 251.991 293.325 250.514 301.001C248.151 313.793 240.569 325.208 230.524 331.21C220.086 337.409 220.086 337.409 149.678 337.409H85.9666L85.6711 390.251C85.3757 443.093 85.3757 443.192 83.1109 448.702C72.8697 473.303 45.002 483.143 21.5655 470.449C15.0663 466.907 7.58238 458.641 3.84042 450.867L0.689298 444.176L0.196942 368.898C-0.0984756 327.471 -7.48352e-06 290.964 0.492356 287.716C2.65875 270.496 18.3159 254.358 35.2532 251.996C40.8661 251.209 208.368 251.504 215.458 252.291ZM353.024 256.031C361.985 260.459 369.371 267.937 373.703 277.089C376.658 283.387 376.855 284.469 376.855 294.604C376.855 304.74 376.658 305.822 373.703 312.12C364.546 331.407 343.965 341.149 323.679 335.933C303.493 330.62 290.593 312.612 291.971 291.456C293.054 274.038 304.182 259.77 321.71 253.472C325.55 252.095 328.8 251.799 336.185 252.095C344.851 252.488 346.525 252.882 353.024 256.031Z" fill="white"/>
</svg>
