<svg width="414" height="150" viewBox="0 0 414 150" fill="none" xmlns="http://www.w3.org/2000/svg">
<path fill-rule="evenodd" clip-rule="evenodd" d="M6.5807 103.602H0V147.98H27.9125V141.284H6.5807V103.602Z" fill="#D9D900"/>
<path fill-rule="evenodd" clip-rule="evenodd" d="M42.8856 128.692H63.4225V122.244H42.8856V109.828H63.8667V103.179H36.2698V147.98H63.9368V141.284H42.8856V128.692Z" fill="#D9D900"/>
<path fill-rule="evenodd" clip-rule="evenodd" d="M81.7269 116.464L93.7779 133.45H97.5417L109.417 116.464V147.251H115.893V103.473H110.715L95.6949 124.769L80.4879 103.473H75.1462V147.251H81.7269V116.464Z" fill="#D9D900"/>
<path fill-rule="evenodd" clip-rule="evenodd" d="M126.904 125.662C126.904 132.134 129.557 137.948 133.648 142.212C137.774 146.547 143.548 149.178 149.837 149.178C156.219 149.178 161.993 146.547 166.201 142.212C170.28 137.948 172.933 132.134 172.933 125.662C172.933 119.19 170.28 113.375 166.201 109.111C161.993 104.836 156.219 102.169 149.837 102.169C143.548 102.169 137.774 104.836 133.648 109.111C129.557 113.375 126.904 119.19 126.904 125.662ZM166.329 125.662C166.329 130.372 164.447 134.495 161.537 137.49C158.486 140.568 154.278 142.471 149.837 142.471C145.407 142.471 141.304 140.568 138.347 137.49C135.39 134.495 133.519 130.302 133.519 125.662C133.519 121.022 135.39 116.84 138.347 113.833C141.304 110.756 145.407 108.853 149.837 108.853C154.278 108.853 158.486 110.756 161.537 113.833C164.447 116.84 166.329 120.963 166.329 125.662Z" fill="#D9D900"/>
<path fill-rule="evenodd" clip-rule="evenodd" d="M190.525 147.31V116.817L212.429 147.31H217.607V103.602H211.132V134.401L189.04 103.602L183.979 103.543V147.31H190.525Z" fill="#D9D900"/>
<path fill-rule="evenodd" clip-rule="evenodd" d="M227.94 125.638C227.94 132.016 230.535 137.807 234.416 142.013C238.366 146.218 243.942 148.849 250.102 148.849C260.657 148.849 268.956 141.754 271.539 131.288H265.133C262.796 138.266 256.963 142.283 250.102 142.283C245.754 142.283 241.803 140.368 238.951 137.349C236.099 134.319 234.287 130.243 234.287 125.638C234.287 120.904 236.099 116.817 238.951 113.798C241.803 110.767 245.754 108.865 250.102 108.865C256.776 108.865 262.34 112.353 264.736 119.26H271.223C268.628 108.865 260.458 102.31 250.102 102.31C243.942 102.31 238.366 104.977 234.416 109.123C230.535 113.34 227.94 119.119 227.94 125.638Z" fill="#242415"/>
<path fill-rule="evenodd" clip-rule="evenodd" d="M281.1 125.662C281.1 132.134 283.753 137.948 287.833 142.212C291.959 146.547 297.733 149.178 304.021 149.178C310.415 149.178 316.178 146.547 320.386 142.212C324.465 137.948 327.13 132.134 327.13 125.662C327.13 119.19 324.465 113.375 320.386 109.111C316.178 104.836 310.415 102.169 304.021 102.169C297.733 102.169 291.959 104.836 287.833 109.111C283.753 113.375 281.1 119.19 281.1 125.662ZM320.514 125.662C320.514 130.372 318.644 134.495 315.722 137.49C312.683 140.568 308.463 142.471 304.021 142.471C299.603 142.471 295.489 140.568 292.543 137.49C289.586 134.495 287.704 130.302 287.704 125.662C287.704 121.022 289.586 116.84 292.543 113.833C295.489 110.756 299.603 108.853 304.021 108.853C308.463 108.853 312.683 110.756 315.722 113.833C318.644 116.84 320.514 120.963 320.514 125.662Z" fill="#242415"/>
<path fill-rule="evenodd" clip-rule="evenodd" d="M338.106 103.179V148.403H353.979C368.601 148.403 376.059 137.208 376.059 125.955C376.059 114.702 368.601 103.179 353.979 103.179H338.106ZM344.651 141.907V109.828H353.979C364.265 109.828 369.571 117.98 369.571 125.955C369.571 133.931 364.265 141.907 353.979 141.907H344.651Z" fill="#242415"/>
<path fill-rule="evenodd" clip-rule="evenodd" d="M392.727 128.692H413.263V122.244H392.727V109.828H413.708V103.179H386.111V147.98H413.778V141.284H392.727V128.692Z" fill="#242415"/>
<path d="M150.024 8.26938V11.6523H146.564C144.577 11.6523 143.583 14.4832 143.583 20.1684V31.7737C143.583 35.8731 142.964 39.0211 141.748 41.2764C140.544 43.4965 139.422 44.9648 138.358 45.6343V45.7987C139.481 46.6445 140.614 48.1715 141.807 50.3563C142.987 52.5294 143.583 55.6656 143.583 59.7416V71.2529C143.583 76.8559 144.577 79.6515 146.564 79.6515H150.024V83.0227H145.524C141.771 83.0227 139.878 79.6515 139.878 72.8974V61.2569C139.878 52.036 138.113 47.3962 134.548 47.3962V44.0251C138.113 44.0251 139.878 39.444 139.878 30.2702V18.5121C139.878 11.6875 142.075 8.26938 146.447 8.26938H150.024Z" fill="#242415"/>
<path d="M264.198 7.78778V11.159H267.658C269.645 11.159 270.639 13.9898 270.639 19.675V31.2803C270.639 35.3915 271.258 38.5395 272.474 40.7948C273.678 43.0149 274.8 44.4714 275.863 45.141V45.3054C274.741 46.1629 273.608 47.6782 272.415 49.863C271.235 52.036 270.639 55.184 270.639 59.26V70.7713C270.639 76.3743 269.645 79.1699 267.658 79.1699H264.198V82.5411H268.698C272.45 82.5411 274.344 79.1699 274.344 72.4158V60.7753C274.344 51.5427 276.109 46.9146 279.674 46.9146V43.5435C276.109 43.5435 274.344 38.9507 274.344 29.7886V18.0305C274.344 11.2059 272.147 7.78778 267.775 7.78778H264.198Z" fill="#242415"/>
<path fill-rule="evenodd" clip-rule="evenodd" d="M222.493 49.2991C218.94 48.3242 215.048 47.6782 211.482 46.7032C211.155 47.0321 211.155 46.3743 211.155 47.3493C211.155 47.9953 221.85 61.2921 227.356 67.7878C227.683 68.4338 228.653 68.751 229.296 68.751C231.891 68.751 239.337 58.6962 239.337 56.758C239.337 51.8951 232.218 51.8951 230.266 51.2373C227.683 50.5912 224.761 49.9452 222.493 49.2991ZM241.604 44.7533C241.604 41.1942 240.318 34.3814 236.426 32.1026L211.81 44.4362L236.753 49.2991C240.634 48.6531 241.604 47.9953 241.604 44.7533ZM228.326 16.5388C227.028 15.5638 225.415 14.2717 224.761 14.2717C223.791 14.2717 222.82 15.5638 222.493 16.2216C218.94 24.3265 210.185 40.2193 210.185 40.8653C210.185 41.8403 213.423 40.2193 216.988 38.2694C222.82 35.0274 229.296 32.1026 234.801 28.8606C235.129 28.5435 235.129 28.2146 235.129 27.2396C235.129 23.9977 232.534 20.4268 228.326 16.5388ZM208.572 48.8058H207.602V62.1026C207.602 62.7604 207.929 71.8403 208.899 76.3743C209.227 77.3493 212.464 78.6531 213.762 78.6531C216.345 78.6531 224.118 75.7283 224.118 71.5114C224.118 70.5364 223.475 68.5983 222.505 67.6233C217.97 61.4565 214.405 54.3265 208.572 48.8058ZM205.486 75.5638L205.171 48.9702C204.2 49.2991 203.873 49.2991 203.546 49.6163C199.011 55.4542 194.148 61.2921 189.297 67.13C188.327 68.4338 186.703 70.7009 186.703 71.3469C186.703 76.2099 199.665 79.4636 201.933 79.4636C203.873 79.4636 205.486 77.8309 205.486 75.5638ZM201.442 45.9632C200.145 45.9632 198.204 45.6343 197.234 45.6343L182.974 46.9381H177.796C175.528 46.9381 173.588 47.5842 173.588 50.8262C173.588 52.4471 176.826 67.0478 182.974 67.0478C183.628 67.0478 183.956 67.0478 184.271 66.7189C188.807 61.527 193.014 56.018 197.55 51.4722C198.847 49.8512 201.769 47.5842 201.769 46.6092C201.769 45.9632 201.769 46.2803 201.442 45.9632ZM201.699 44.3422C202.026 44.3657 202.319 44.3774 202.611 44.26C202.412 44.3187 202.19 44.3422 201.933 44.3422H201.699ZM182.822 24.8904C181.84 24.2443 180.554 24.2443 179.573 24.2443C176.019 28.1323 174.067 34.9452 174.067 39.4793C174.067 44.0251 178.93 43.6962 182.495 43.6962C183.465 43.6962 188.327 43.379 190.911 43.0501H202.576V42.0752C196.1 36.5662 189.297 30.3994 182.822 24.8904ZM204.352 39.5145C202.412 30.1057 202.739 21.6719 198.531 12.592C196.579 12.592 194.312 12.592 193.014 13.567C191.729 14.213 183.628 18.4299 183.628 21.3547C183.628 22.3297 198.531 35.9436 204.037 40.4894C204.68 39.8316 204.352 39.5145 204.352 39.5145ZM218.122 11.5114C214.241 10.5364 207.111 10.2193 206.468 10.2193C205.486 10.2193 204.516 10.2193 204.2 10.5364C203.219 10.8653 202.903 11.8403 202.903 12.4863L207.438 39.0799C210.021 37.13 211.973 31.2921 213.914 27.733C214.241 26.758 220.074 16.7032 220.074 14.1073C220.074 13.1323 220.074 13.1323 219.746 12.8152C219.419 12.1574 218.776 11.5114 218.122 11.5114ZM207.111 0C182.062 0 161.759 20.3328 161.759 45.3994C161.759 70.4777 182.062 90.8105 207.111 90.8105C232.16 90.8105 252.463 70.4777 252.463 45.3994C252.463 20.3328 232.16 0 207.111 0ZM247.624 55.7244C246.946 57.9092 246.151 60.0705 245.298 62.1848C244.503 64.1464 243.556 66.0024 242.153 67.5998C240.786 69.1621 239.114 70.419 237.513 71.7345C235.818 73.1324 234.953 75.2937 233.422 76.8794C231.984 78.3712 229.834 79.1464 228.057 80.2506C226.339 81.3078 224.796 82.7173 222.879 83.3634C218.952 84.6907 214.814 86.0885 210.734 86.8285C206.538 87.592 201.594 86.4409 197.386 85.9593C193.283 85.5012 189.391 83.8332 185.838 81.6719C181.665 79.1229 177.398 76.1629 174.476 72.1692C171.776 68.4691 169.964 64.1464 168.211 59.9765C167.358 57.9444 166.867 55.8066 166.586 53.6218C166.283 51.2725 165.383 49.5576 165.008 47.2318C163.898 40.3485 165.628 34.3696 168.398 27.9209C169.24 25.971 170.058 23.9859 171.098 22.13C172.127 20.3093 173.413 18.6766 175.002 17.314C176.592 15.9514 178.357 14.8238 179.958 13.4847C181.571 12.1222 182.892 10.4542 184.493 9.07988C186.071 7.7408 187.883 6.90681 189.87 6.36648C191.962 5.79092 194.125 5.48551 196.194 4.83947C198.344 4.15818 200.425 3.26547 202.611 2.72514C207.111 1.60924 211.763 2.32576 216.17 3.50039C220.588 4.66327 224.983 6.08457 228.91 8.48081C230.874 9.67894 232.721 11.0533 234.544 12.4393C243.474 19.2169 246.747 31.1042 248.407 41.7815C249.143 46.4918 249.026 51.1551 247.624 55.7244Z" fill="#D9D900"/>
</svg>
