<svg width="64" height="64" viewBox="0 0 64 64" fill="none" xmlns="http://www.w3.org/2000/svg">
<path d="M27.3832 0.164419C28.0015 0.246628 28.9908 0.246628 29.6504 0.164419C30.2687 0.0822094 29.7328 0 28.4962 0C27.2595 0 26.7237 0.0822094 27.3832 0.164419Z" fill="#DEC802"/>
<path d="M24.7038 0.575464C24.9924 0.698778 25.3634 0.657674 25.487 0.53436C25.6519 0.411045 25.4046 0.287731 24.9511 0.328836C24.4977 0.328836 24.374 0.45215 24.7038 0.575464Z" fill="#DEC802"/>
<path d="M31.7115 0.575469C31.9588 0.657678 32.4534 0.657678 32.742 0.575469C32.9893 0.452155 32.7832 0.369945 32.2061 0.369945C31.629 0.369945 31.4229 0.452155 31.7115 0.575469Z" fill="#DEC802"/>
<path d="M34.1847 0.986505C34.4733 1.10982 34.8443 1.06871 34.9679 0.9454C35.1328 0.822086 34.8855 0.698772 34.4321 0.739877C33.9786 0.739877 33.855 0.863191 34.1847 0.986505Z" fill="#DEC802"/>
<path d="M21.8595 2.21965L20.8702 3.37058L22.0244 2.38407C23.055 1.43866 23.3435 1.10982 23.0137 1.10982C22.9313 1.10982 22.4366 1.60308 21.8595 2.21965Z" fill="#DEC802"/>
<path d="M37.9771 2.13744C38.5542 2.46628 39.2137 2.7129 39.4199 2.7129C39.6672 2.7129 39.3786 2.46628 38.8015 2.13744C38.2244 1.8086 37.6061 1.56197 37.3588 1.56197C37.1527 1.56197 37.4 1.8086 37.9771 2.13744Z" fill="#DEC802"/>
<path d="M40.8626 3.32948C40.8626 3.4528 41.2336 3.74053 41.687 3.98716C42.1405 4.23378 42.5115 4.31599 42.5115 4.23378C42.5115 4.11047 42.1405 3.82274 41.687 3.57611C41.2336 3.32948 40.8626 3.24727 40.8626 3.32948Z" fill="#DEC802"/>
<path d="M20.7053 4.68593C20.7053 5.38471 20.4168 6.08349 20.1695 6.1657C19.7573 6.33012 19.7573 6.41233 20.1695 6.41233C20.4168 6.45343 20.6641 6.74117 20.6641 7.07C20.6641 7.43995 20.9939 8.30315 21.3649 9.04303C21.7359 9.78291 22.0656 10.5228 22.1069 10.7694C22.1069 10.975 22.5191 11.3449 23.0137 11.6326C23.5496 11.8793 24.2916 12.3314 24.6626 12.7013C25.0748 13.0302 26.2702 13.8112 27.3832 14.4277C28.455 15.0443 29.3206 15.702 29.3206 15.9075C29.3206 16.1952 25.4046 21.3333 23.0962 24.0051C22.313 24.9916 21.2 25.3205 21.7359 24.4573C21.942 24.1696 21.8595 24.1284 21.5298 24.2929C21.2412 24.4984 21.1176 24.745 21.2412 24.8683C21.3649 24.9916 21.1176 25.3205 20.6641 25.6493C20.2107 25.9782 19.6336 26.6358 19.3863 27.1291C19.0153 27.9101 19.0565 27.9101 19.7985 27.0058C20.2519 26.4303 20.6641 26.1426 20.6641 26.3481C20.6641 26.5947 20.9115 26.3892 21.2412 25.9371C21.7771 25.2383 21.8183 25.3205 21.6122 26.8414C21.4473 28.28 21.5298 28.65 22.3542 29.2254C23.0962 29.7187 23.1786 29.8831 22.6427 29.8831C22.2718 29.8831 21.6534 29.4721 21.3237 28.9788C20.9527 28.4855 20.6641 28.2389 20.6641 28.4855C20.6641 28.7322 20.9939 29.2254 21.4061 29.5543C23.055 30.9929 25.5695 30.7052 26.4763 28.9788L26.9298 28.0334L26.0641 28.9377C24.8687 30.1708 24.7038 30.1297 25.4458 28.7322C25.7344 28.1156 26.0229 27.2524 26.0229 26.8003C26.0229 26.1426 26.1053 26.1015 26.3939 26.5947C26.6412 26.9236 26.6824 27.3346 26.6 27.499C26.4763 27.6635 26.5588 27.8279 26.8061 27.8279C27.0122 27.8279 27.2595 27.5812 27.3832 27.2935C27.5069 26.8825 28.9084 29.0199 28.9084 29.6776C28.9084 30.1708 25.3634 31.5273 23.9618 31.5273C23.1786 31.5273 21.7359 31.1574 20.829 30.7463C19.1389 29.9653 19.0977 29.9653 18.4382 30.7874C17.5725 31.7739 17.1191 31.4862 17.7374 30.3353C18.1496 29.6365 18.1084 29.5132 17.5725 29.7187C17.0366 29.9242 16.9542 29.6365 17.1603 27.5812C17.4076 25.3205 19.345 19.4014 19.7573 19.7714C19.8397 19.8947 19.9221 20.9634 19.9221 22.1554L19.8809 24.334L20.7053 23.3064C21.6534 22.1143 23.2611 19.1959 22.9313 19.1959C22.8489 19.1959 22.3542 19.9358 21.9008 20.8401C21.4473 21.7444 20.829 22.4843 20.5817 22.4843C20.2107 22.4843 20.2107 22.3609 20.5405 22.0321C20.8702 21.7033 20.8702 21.1278 20.5817 20.1002C20.3344 19.237 20.0046 17.6339 19.8397 16.5241L19.5099 14.4688L19.4687 16.7707C19.4275 18.3738 19.1802 19.4014 18.6031 20.1002C18.1908 20.6757 17.9435 21.2511 18.0672 21.4155C18.1908 21.5389 18.1084 21.6622 17.8611 21.6622C17.5725 21.6622 17.4076 21.7855 17.4076 21.9499C17.4489 22.1554 17.4489 22.361 17.3664 22.4843C17.3252 22.6076 17.2427 23.1419 17.1191 23.6763C17.0366 24.2518 16.7481 24.9094 16.4595 25.2383C16.171 25.6082 16.1298 26.5536 16.3359 27.9512C16.5008 29.1021 16.5832 30.4997 16.5832 30.9929C16.5832 31.4862 16.7481 32.4316 17.0366 33.0482C17.284 33.6647 17.5725 34.5279 17.655 34.9801C17.7374 35.3911 18.0672 36.2132 18.3969 36.8298C19.2626 38.3507 21.0763 42.6667 21.0763 43.1599C21.0763 43.982 18.7267 40.3237 16.7069 36.3776C15.5939 34.158 14.6046 32.3494 14.4809 32.3494C14.3573 32.3494 13.8214 33.2126 13.2443 34.2813C12.7084 35.3089 11.3069 37.1997 10.1939 38.3918C9.08092 39.6249 8.29771 40.6936 8.42137 40.817C8.70992 41.1047 11.884 40.2415 13.3679 39.5016C14.3985 38.9672 14.4809 38.9672 14.4809 39.666C14.4809 40.6936 12.3786 43.9409 11.0183 44.9685C10.4412 45.4618 9.94657 45.9139 9.94657 46.0372C9.94657 46.1195 10.8122 46.0373 11.8427 45.8317C12.8733 45.5851 13.8214 45.544 13.945 45.6673C14.1099 45.7906 13.7802 46.4072 13.2031 47.0649C12.6672 47.6814 13.1618 47.3526 14.2748 46.325C15.3878 45.2974 16.0473 44.8041 15.7588 45.1741C15.4702 45.5851 15.3878 45.9139 15.6351 45.9139C16.1298 45.9139 17.0366 44.8863 16.7481 44.5986C16.6244 44.5164 17.0779 43.8998 17.7374 43.2832C18.8916 42.1734 19.8809 42.1323 19.7985 43.1599C19.7985 43.4888 19.716 43.4888 19.5511 43.1188C19.3863 42.7078 19.1802 42.7489 18.5618 43.2832C18.1496 43.6532 17.7786 44.1875 17.7786 44.4342C17.7786 44.6808 16.5008 45.9139 14.8931 47.1471C13.3267 48.3802 12.0076 49.5311 12.0076 49.6956C12.0076 49.8189 11.6779 50.0655 11.3069 50.1888C10.8947 50.3121 11.5954 50.3121 12.7908 50.1888C15.3878 49.9833 16.0885 49.6134 14.0275 49.6134L12.626 49.5723L14.0687 48.3391C14.8519 47.6814 16.6244 46.3661 17.9435 45.4618L20.3756 43.7765L21.7359 45.3796C23.3435 47.2704 23.8382 47.0649 22.684 44.9274C21.571 42.79 22.1481 42.2145 24.1679 43.4477C26.5176 44.8863 29.6504 46.325 30.4336 46.325C30.8458 46.2839 30.516 46.0372 29.6916 45.7495C27.713 45.0507 22.9725 42.3789 22.3542 41.639C21.942 41.1458 22.1481 40.6936 23.5908 39.0494L25.3634 37.0764L23.426 38.885C21.4886 40.7758 20.458 40.9403 21.6122 39.255C21.942 38.7206 24.0031 36.501 26.1878 34.2813C28.5374 31.9383 30.0626 30.0886 29.8977 29.8009C29.7328 29.5543 29.774 29.4721 30.0214 29.5954C30.5573 29.9242 32.4534 28.5267 33.0718 27.3757C33.4427 26.6358 33.3603 26.5947 32.4534 26.8414C31.0519 27.1702 31.0931 26.8825 32.8657 24.2929C34.3908 21.9499 34.8443 21.6622 35.2565 22.7309C35.4214 23.1008 35.6275 23.3064 35.7511 23.183C35.8748 23.0597 35.5038 22.2376 34.9267 21.2922C34.3496 20.3879 33.855 19.4425 33.855 19.1959C33.855 18.9904 33.6901 18.7848 33.4427 18.7848C33.2366 18.7848 33.0305 18.4971 33.0305 18.1272C33.0305 17.7983 32.8656 17.6339 32.6183 17.7572C32.4122 17.8805 32.3298 17.7572 32.4534 17.4284C32.5771 17.0995 32.4534 16.6885 32.1649 16.483C31.8351 16.2775 31.7527 16.3597 32 16.7707C32.1649 17.0995 31.7527 16.7296 31.0107 15.9897C30.3099 15.2498 29.5679 14.7566 29.3206 14.8799C29.1145 15.0032 28.9084 14.921 28.9084 14.7155C28.9084 14.4688 28.6198 14.2633 28.2901 14.2633C27.9603 14.2633 27.6718 14.0989 27.6718 13.8523C27.6718 13.6468 28.4137 13.729 29.3618 14.0578C30.3099 14.3866 31.2168 14.5511 31.4229 14.4277C31.629 14.3044 31.7939 14.4277 31.7939 14.6744C31.7939 14.921 32.0412 15.0032 32.3298 14.8388C32.5771 14.6744 32.7008 14.6744 32.5359 14.8799C32.371 15.0443 32.7008 15.7842 33.2366 16.483C34.7618 18.456 36.4107 22.3609 36.1221 23.2653C35.9985 23.7174 36.1221 24.2107 36.3695 24.3751C36.7405 24.5806 36.7817 24.1696 36.6168 22.6898L36.3282 20.6757L37.2763 21.6211C37.8122 22.1143 38.513 22.9364 38.8015 23.4708C39.255 24.3751 39.1725 24.5806 37.7298 25.9371C36.8229 26.718 36.3695 27.4168 36.658 27.4168C36.9053 27.4168 37.1527 27.7046 37.1527 28.0334C37.1527 28.9377 39.0076 30.7052 39.9145 30.7052C40.3679 30.6641 40.1618 30.4586 39.3786 30.1297C38.0183 29.5132 36.8229 27.1702 37.4824 26.5125C37.7298 26.2659 37.9771 26.6358 38.1008 27.3346C38.4305 28.8966 39.4198 29.8831 40.6977 29.8831C41.2748 29.8831 41.6458 30.0475 41.5221 30.253C41.3985 30.4586 41.6458 30.7052 42.0992 30.8285C42.5939 30.9518 42.9237 30.8285 42.9237 30.4997C42.9237 30.2119 43.171 29.7598 43.5008 29.5132C44.3252 28.8144 44.5725 29.7598 44.5725 33.9114L44.6137 37.4875L45.6443 35.5144C46.2214 34.4046 46.5924 33.2126 46.5099 32.8426C46.3863 32.3905 46.2214 32.6371 46.0153 33.5003C45.6855 34.8568 44.9847 35.72 44.9847 34.7335C44.9847 34.4457 45.2733 33.4592 45.5618 32.5549C46.0977 31.0751 46.0565 30.8696 45.3557 30.253C44.8198 29.8009 44.5313 28.9377 44.4901 27.499C44.4489 26.3481 44.2427 25.526 44.0779 25.6082C43.8718 25.7315 43.6244 25.2383 43.4595 24.4984C43.2534 23.3475 43.1298 23.2653 42.7176 23.8407C42.1817 24.5806 41.687 24.334 41.687 23.3475C41.687 22.8131 41.7695 22.8131 42.058 23.2241C42.3466 23.6763 42.429 23.6763 42.6351 23.183C42.7588 22.8542 42.4702 22.1554 41.9756 21.6211C41.4809 21.0867 41.1099 20.5112 41.1924 20.3057C41.2336 20.1002 41.1099 20.0591 40.8626 20.2235C40.6565 20.3468 40.4504 20.2646 40.4504 20.0591C40.4504 19.8125 39.8733 18.8259 39.1725 17.8394C38.4718 16.894 37.9359 16.2775 38.0595 16.5241C38.142 16.7296 38.884 18.3327 39.7084 20.018C40.9863 22.6898 42.7176 28.5678 42.3466 28.9788C42.2641 29.0199 41.8931 28.3622 41.5221 27.4168C41.1511 26.5125 40.4092 25.0328 39.8733 24.1696C39.2962 23.3064 38.9664 22.4432 39.1313 22.2376C39.2962 22.0732 39.1725 22.0732 38.9252 22.2376C38.6366 22.4021 38.3893 22.3609 38.3893 22.1554C38.3893 21.58 36.6992 19.9769 36.3282 20.2235C35.8748 20.5112 36.0397 19.3192 36.5344 18.9082C36.6992 18.7437 36.7405 18.7848 36.6168 19.0315C36.4519 19.3192 36.6168 19.648 36.9878 19.7714C37.9771 20.1413 38.1008 20.0591 37.4 19.3603C37.029 19.0315 36.7405 18.4149 36.7405 18.045C36.6992 17.4284 36.658 17.4284 36.287 18.0861C36.0397 18.456 35.6687 18.7026 35.4214 18.5382C35.1328 18.3738 35.174 18.1683 35.545 17.9216C35.916 17.7161 35.6275 17.0995 34.2672 15.6198C33.2779 14.5511 32 13.359 31.4229 13.0302C30.2275 12.3314 26.6412 10.194 25.4046 9.45408C24.9511 9.16634 24.1679 8.7553 23.7145 8.46756C23.2198 8.22094 22.5191 7.43995 22.1481 6.74117C21.4886 5.46692 21.4886 6.20681 22.1069 7.8921C22.3954 8.59088 22.3542 8.63198 21.8595 8.17983C21.571 7.8921 21.2 6.70006 21.0351 5.50803C20.8702 4.15157 20.7466 3.82273 20.7053 4.68593ZM23.9618 10.3584C24.2504 10.6872 24.9099 10.9749 25.487 10.9749C26.0229 10.9749 27.0534 11.2627 27.7542 11.6326C28.9496 12.2492 28.9908 12.3725 28.3725 12.8247C28.0015 13.1124 27.2183 13.2357 26.6824 13.1535C25.6931 12.948 22.1893 9.74181 23.0137 9.74181C23.2611 9.74181 23.6733 10.0295 23.9618 10.3584ZM23.9618 26.718C23.9618 27.0469 23.8382 27.4168 23.6733 27.5401C23.3023 27.9101 22.2718 27.0058 22.5603 26.5536C22.8901 25.9782 23.9618 26.1015 23.9618 26.718ZM40.4504 27.5812C39.9145 28.1156 39.0076 27.2935 39.4198 26.5947C39.626 26.2659 39.8733 26.2659 40.2855 26.6358C40.6977 26.9647 40.7802 27.2524 40.4504 27.5812ZM19.7985 33.6647C19.3038 34.6512 18.8504 35.4733 18.8092 35.5556C18.7267 35.6378 18.4794 35.0212 18.1908 34.158C17.6137 32.4727 17.9847 31.9383 19.7573 31.9383H20.6641L19.7985 33.6647ZM19.0153 44.0231C19.0153 44.1464 18.8504 44.352 18.6031 44.4753C18.3969 44.5986 18.1908 44.5164 18.1908 44.3109C18.1908 44.0642 18.3969 43.8587 18.6031 43.8587C18.8504 43.8587 19.0153 43.9409 19.0153 44.0231Z" fill="#DEC802"/>
<path d="M46.0153 6.78228C46.4687 7.31664 47.2107 7.93321 47.6641 8.17984C48.5298 8.63199 48.4061 8.50867 46.4275 6.86449C45.2321 5.87797 45.2321 5.87797 46.0153 6.78228Z" fill="#DEC802"/>
<path d="M16.9542 8.13872L15.5115 9.41297L16.8305 8.50867C18.026 7.72768 18.8916 6.86448 18.5206 6.86448C18.4382 6.86448 17.7374 7.43994 16.9542 8.13872Z" fill="#DEC802"/>
<path d="M14.8107 10.4406C13.945 11.4271 13.2443 12.8658 13.2443 13.5234C13.2855 13.8112 13.574 13.4001 13.9038 12.6191C14.2336 11.8382 14.8107 10.8927 15.1817 10.4817C15.5527 10.0707 15.7588 9.74181 15.6351 9.74181C15.5115 9.74181 15.1405 10.0707 14.8107 10.4406Z" fill="#DEC802"/>
<path d="M12.6672 15.1676C12.5435 15.702 12.4611 17.0173 12.5023 18.1683C12.5435 20.0591 12.5435 19.9769 12.8321 17.3462C13.1618 14.3044 13.1206 13.6057 12.6672 15.1676Z" fill="#DEC802"/>
<path d="M24.0031 14.921C24.0031 15.3732 24.1267 15.4965 24.2504 15.1676C24.374 14.8799 24.3328 14.51 24.2092 14.3866C24.0855 14.2222 23.9618 14.4688 24.0031 14.921Z" fill="#DEC802"/>
<path d="M48.6534 15.4143C48.9008 15.9075 49.313 16.3186 49.5603 16.3186C49.8076 16.3186 49.8489 16.5241 49.7252 16.7296C49.5603 16.9762 49.6427 17.0996 49.8489 17.0584C50.055 16.9762 51.5802 18.2916 53.229 19.8947C56.1969 22.8542 57.145 23.5119 56.6916 22.2787C56.5267 21.9499 56.2794 21.7444 56.1145 21.8677C55.9084 21.991 54.713 20.8812 53.3527 19.4425C52.0336 18.0039 50.3435 16.3186 49.5603 15.6609C48.3237 14.6333 48.2 14.5922 48.6534 15.4143Z" fill="#DEC802"/>
<path d="M23.5908 16.9762C23.5908 17.4284 23.7145 17.5517 23.8382 17.2229C23.9618 16.9351 23.9206 16.5652 23.7969 16.4419C23.6733 16.2775 23.5496 16.5241 23.5908 16.9762Z" fill="#DEC802"/>
<path d="M54.0947 17.3462C54.0947 17.5517 54.5481 18.5793 55.084 19.6069C55.6199 20.6346 56.0733 21.2511 56.0733 21.0456C56.0733 20.799 55.6199 19.8125 55.084 18.7848C54.5481 17.7572 54.0947 17.0996 54.0947 17.3462Z" fill="#DEC802"/>
<path d="M25.9817 18.6615L24.9924 19.8125L26.1466 18.8259C27.1771 17.8805 27.4657 17.5517 27.1359 17.5517C27.0534 17.5517 26.5588 18.045 25.9817 18.6615Z" fill="#DEC802"/>
<path d="M50.7557 19.4014C50.7557 19.6069 50.9618 20.1002 51.1679 20.429C51.374 20.7579 51.5802 20.8401 51.5802 20.6346C51.5802 20.3879 51.374 19.9358 51.1679 19.6069C50.9618 19.2781 50.7557 19.1548 50.7557 19.4014Z" fill="#DEC802"/>
<path d="M23.9206 21.1278L22.9313 22.2787L24.0855 21.2922C25.116 20.3468 25.4046 20.018 25.0748 20.018C24.9924 20.018 24.4977 20.5112 23.9206 21.1278Z" fill="#DEC802"/>
<path d="M12.5435 21.8677C12.5435 22.772 12.626 23.1008 12.7084 22.5665C12.7908 22.0732 12.7908 21.3333 12.7084 20.9223C12.5847 20.5523 12.5023 20.9634 12.5435 21.8677Z" fill="#DEC802"/>
<path d="M45.8504 21.7444C45.8092 21.9088 46.0977 23.2241 46.4275 24.6628C47.3344 28.5678 47.1695 33.7058 46.0153 36.2543C44.8199 38.9261 41.687 42.3789 39.0489 43.8998C37.8947 44.5575 37.1527 45.0918 37.3588 45.0918C37.6061 45.0918 38.3481 44.7219 39.0901 44.2697C40.2443 43.571 43.0886 43.2421 42.7176 43.8587C42.6351 43.982 43.3359 44.5164 44.284 45.0507L46.0153 45.9961L44.5725 44.763C43.2947 43.6532 43.2122 43.4888 43.913 43.201C44.8611 42.8311 46.5511 43.6943 49.9725 46.4072C51.4153 47.517 52.0336 47.887 51.2916 47.1882C49.8901 45.8728 48.2824 43.1188 48.2824 42.009C48.2824 41.4746 48.6122 41.5568 50.055 42.42C51.745 43.3654 53.229 43.7765 53.229 43.201C53.229 43.0777 52.7756 42.3789 52.1985 41.6391C50.6733 39.6249 48.9832 35.72 49.2305 34.6924C49.4366 33.9525 49.2305 34.0758 48.2412 35.2267C47.087 36.5832 47.0046 36.5832 47.4168 35.5145C47.6641 34.8979 47.7466 34.4046 47.6229 34.4046C47.458 34.4046 47.5817 34.1169 47.8702 33.7881C48.1588 33.4592 48.2 33.1715 47.9939 33.1715C47.5817 33.1715 47.6229 31.034 48.0763 30.2942C48.2412 30.0475 48.1176 29.5954 47.8702 29.2665C47.6229 28.9377 47.4168 28.0745 47.4992 27.3346C47.5405 26.5947 47.4168 25.6082 47.2519 25.1561C46.3863 22.7309 45.8504 21.4978 45.8504 21.7444ZM43.5832 42.2967C43.7481 42.5845 43.7481 42.7078 43.542 42.5434C43.3771 42.3789 42.9649 42.42 42.6351 42.6667C42.0992 43.1188 41.8519 42.5845 42.3878 42.0912C42.8 41.639 43.2534 41.7624 43.5832 42.2967Z" fill="#DEC802"/>
<path d="M22.2718 23.183C21.7359 23.8407 21.7771 23.8818 22.4366 23.3475C22.8076 23.0597 23.1374 22.7309 23.1374 22.6487C23.1374 22.3198 22.8076 22.5254 22.2718 23.183Z" fill="#DEC802"/>
<path d="M52.0748 23.7174C52.0748 24.2929 52.1573 24.4984 52.2809 24.2107C52.3634 23.964 52.3634 23.4708 52.2809 23.183C52.1573 22.9364 52.0748 23.1419 52.0748 23.7174Z" fill="#DEC802"/>
<path d="M12.9145 25.5671C12.9145 26.2248 12.9969 26.4714 13.1206 26.0604C13.2031 25.6904 13.2031 25.115 13.1206 24.8272C12.9969 24.5806 12.9145 24.8683 12.9145 25.5671Z" fill="#DEC802"/>
<path d="M34.226 26.4714C34.597 26.6358 33.7725 27.7046 31.7527 29.842L28.7023 32.966L31.9176 29.8831C33.6489 28.1978 35.0916 26.6769 35.0916 26.5125C35.0916 26.307 34.7618 26.1837 34.3908 26.2248C33.855 26.2248 33.8137 26.307 34.226 26.4714Z" fill="#DEC802"/>
<path d="M52.0748 27.6224C52.0748 28.28 52.1573 28.5267 52.2809 28.1156C52.3634 27.7457 52.3634 27.1702 52.2809 26.8825C52.1573 26.6358 52.0748 26.9236 52.0748 27.6224Z" fill="#DEC802"/>
<path d="M13.2855 28.4855C13.2855 28.9377 13.4092 29.061 13.5328 28.7322C13.6565 28.4444 13.6153 28.0745 13.4916 27.9512C13.3679 27.7868 13.2443 28.0334 13.2855 28.4855Z" fill="#DEC802"/>
<path d="M13.6977 30.1297C13.6977 30.5819 13.8214 30.7052 13.945 30.3764C14.0687 30.0886 14.0275 29.7187 13.9038 29.5954C13.7802 29.431 13.6565 29.6776 13.6977 30.1297Z" fill="#DEC802"/>
<path d="M51.0031 30.9929C50.7557 31.5684 50.7969 31.6095 51.2092 31.2396C51.4977 30.9518 51.6214 30.623 51.4977 30.4997C51.374 30.3764 51.1267 30.5819 51.0031 30.9929Z" fill="#DEC802"/>
<path d="M26.8885 34.9801L25.8992 36.2543L27.0534 35.1445C27.713 34.5279 28.1664 33.9525 28.0427 33.8703C27.9603 33.7469 27.4244 34.2813 26.8885 34.9801Z" fill="#DEC802"/>
<path d="M28.1252 40.1182C27.2595 40.6525 29.3206 41.8446 31.5053 42.0912C33.5252 42.2967 36.5344 40.817 35.4626 40.1182C34.7206 39.666 28.8672 39.666 28.1252 40.1182Z" fill="#DEC802"/>
<path d="M26.8473 46.2839C26.8473 46.7771 26.5588 47.7636 26.1466 48.5035C25.5282 49.6956 25.5282 49.7778 26.1466 49.2434C26.8473 48.6679 27.5481 46.0784 27.0947 45.6262C26.971 45.4618 26.8473 45.7906 26.8473 46.2839Z" fill="#DEC802"/>
<path d="M33.0305 46.1195C31.7527 46.4894 31.5053 46.6538 32.2061 46.6949C32.7832 46.6949 33.8137 46.4483 34.4733 46.1195C36.0397 45.4207 35.4626 45.4207 33.0305 46.1195Z" fill="#DEC802"/>
<path d="M37.1939 46.6538C37.1527 48.0103 38.2244 50.4355 38.884 50.4355C39.0901 50.4355 38.9252 49.9422 38.5542 49.3667C38.142 48.7913 37.6886 47.6403 37.5237 46.8182L37.2351 45.2974L37.1939 46.6538Z" fill="#DEC802"/>
<path d="M46.2214 46.1195C46.2214 46.2017 46.9634 46.8182 47.8702 47.3937C48.7771 48.0103 49.4779 48.709 49.3954 48.9146C49.3542 49.1201 47.6229 49.9011 45.6031 50.5999C41.5634 51.9974 39.0076 53.5594 36.3282 56.2723L34.5969 58.0398L35.5038 56.3956C36.0397 55.4913 36.8229 54.1349 37.2351 53.395C37.6886 52.6962 37.9359 52.0796 37.8122 52.0796C37.4824 52.0796 32.2061 61.0405 32.2061 61.6159C32.2061 61.9037 31.4641 60.6705 30.5573 58.903C29.6504 57.0944 28.7023 55.4502 28.455 55.2036C28.1664 54.957 28.3313 55.4091 28.7435 56.1901C29.8977 58.2042 30.2275 59.1908 29.6916 58.8208C29.4031 58.6564 29.2794 58.7797 29.4031 59.1085C29.5267 59.4374 29.8565 59.684 30.145 59.684C30.4336 59.684 30.7634 59.9717 30.8458 60.3006C31.0107 60.8349 30.9695 60.8349 30.5573 60.3006C30.1863 59.8073 30.145 59.8895 30.3511 60.7116C30.5985 61.6981 30.5573 61.6981 29.6916 60.5061C29.197 59.8073 27.5069 57.9987 25.9405 56.4367C24.374 54.8748 23.426 53.7238 23.8382 53.8882C24.3328 54.0527 24.2504 53.8882 23.5496 53.3128C22.9313 52.8606 22.1893 52.614 21.7359 52.7373C21.2412 52.9017 21.0763 52.8195 21.2412 52.5318C21.4473 52.2441 20.6641 51.6686 19.2214 51.0109C17.2015 50.1066 16.6657 49.9833 15.5939 50.3532L14.2748 50.8054L15.5939 50.5999C16.4183 50.4766 17.6137 50.7232 19.0153 51.2986C21.7359 52.4496 21.4886 52.7373 18.6443 51.6686C17.4489 51.2164 16.5832 51.0109 16.7481 51.2575C16.913 51.5042 16.5832 51.6686 15.9649 51.6686C15.3878 51.6686 14.8931 51.833 14.8931 52.0385C14.8931 52.2852 15.5939 52.3263 16.4595 52.2441C17.8198 52.0385 17.9023 52.0796 17.1603 52.5318C16.7069 52.8195 15.6763 53.025 14.8931 52.9839C13.6153 52.9017 13.5328 52.9428 14.2748 53.395C14.7282 53.6827 15.1817 53.9293 15.3053 53.9705C15.6351 54.0116 17.8198 54.9159 19.6336 55.6968C20.5405 56.0668 22.1069 57.0122 23.0962 57.7521C24.8687 59.1496 24.9099 59.1496 24.6214 58.122C24.4153 57.2588 24.4977 57.0533 25.1573 57.1355C25.8168 57.1766 25.858 57.341 25.487 58.122C25.1573 58.8619 25.1985 59.2318 25.6107 59.6018C26.0229 60.0128 26.1053 59.9717 25.8992 59.3963C25.7756 59.0263 25.9405 58.492 26.2702 58.2042C26.7649 57.7932 26.8886 57.7932 26.7649 58.2453C26.6824 58.5742 26.8886 58.8208 27.2183 58.8619C28.1664 58.8619 28.2489 59.8895 27.3008 59.8895C26.0641 59.8895 26.229 60.5061 27.7542 61.6981C29.3206 62.9313 29.6916 62.7669 28.7435 61.3282C28.3725 60.7527 28.1664 60.3006 28.3313 60.3006C28.7847 60.3006 30.145 62.027 30.145 62.6024C30.145 62.8902 30.3511 63.2601 30.5573 63.3834C30.8458 63.5478 30.9282 63.3012 30.7634 62.6435C30.5985 62.027 30.6809 61.4926 31.0107 61.2871C31.3405 61.0816 31.4641 61.1638 31.2992 61.5748C31.1344 61.9448 31.3405 62.1914 31.7939 62.2325C32.4534 62.2736 34.1023 59.7251 33.9374 58.9441C33.855 58.7386 34.0199 58.6975 34.226 58.8208C34.4321 58.9441 35.2153 58.2864 35.9573 57.3821C38.2244 54.5459 41.687 52.2852 46.0153 50.8465C48.1588 50.1477 50.0137 49.4078 50.1374 49.2434C50.2199 49.0379 49.8901 48.5446 49.3954 48.0925C48.2824 47.106 46.2214 45.8317 46.2214 46.1195ZM19.8397 52.7373C19.8397 52.8195 19.4687 52.9017 18.974 52.9017C18.5206 52.9017 18.2321 52.7373 18.3969 52.4907C18.6031 52.1618 19.8397 52.3674 19.8397 52.7373ZM20.4168 53.5183C20.2107 54.0116 20.4168 54.0938 21.1176 53.9705C21.6534 53.8882 22.0657 53.6005 22.0244 53.3539C21.8595 52.7784 22.6015 52.7373 22.9313 53.3128C23.055 53.5183 22.9725 53.7238 22.7664 53.7238C21.9008 53.7238 22.3542 54.587 23.4672 55.0392C24.4153 55.4091 24.4565 55.5324 23.7969 55.6968C23.3847 55.7791 22.2718 55.4502 21.3237 54.9159C19.1389 53.7238 19.1389 53.7238 19.8397 53.3128C20.6641 52.7784 20.6641 52.8195 20.4168 53.5183Z" fill="#DEC802"/>
<path d="M11.142 48.6679C10.6061 49.3256 10.6473 49.3667 11.3069 48.8324C11.6779 48.5446 12.0076 48.2158 12.0076 48.1336C12.0076 47.8047 11.6779 48.0103 11.142 48.6679Z" fill="#DEC802"/>
<path d="M52.8168 48.6268C52.8168 48.8735 53.0229 49.2434 53.3115 49.5311C53.6824 49.9011 53.5176 50.0244 52.4458 50.0244C50.5496 50.0244 45.6855 51.5042 42.7176 52.9839C39.1725 54.7925 32.6595 61.3282 33.5664 62.1914C33.6901 62.3147 33.9786 62.027 34.226 61.5748C34.597 60.9171 34.9679 60.7938 35.8748 60.9583C36.5344 61.1227 37.1939 60.9994 37.3176 60.7527C37.4824 60.465 37.2763 60.3006 36.7817 60.3006C36.287 60.3006 35.916 60.0128 35.916 59.684C35.916 59.3552 36.287 59.0674 36.6992 59.0674C37.1527 59.0674 37.6473 58.903 37.771 58.6564C37.9359 58.4098 37.7298 58.3687 37.2763 58.5331C36.6168 58.7386 36.6168 58.6975 37.3588 57.9576C37.8122 57.5055 38.5954 57.1766 39.0901 57.2177C39.5847 57.2588 39.9145 57.1355 39.7908 56.93C39.6672 56.7245 39.2962 56.6423 38.9664 56.7656C38.6366 56.8889 38.3893 56.8067 38.3893 56.6012C38.3893 56.3545 38.5542 56.1901 38.7191 56.1901C38.9252 56.1901 39.4198 55.8613 39.8733 55.4091C41.1924 54.2171 42.2641 53.7649 43.5008 53.8882C44.3252 54.0116 44.7786 53.7649 45.2321 53.0662C45.6443 52.4907 46.0977 52.203 46.5099 52.3674C46.9634 52.5318 47.087 52.4496 46.8809 52.1618C46.716 51.8741 46.7573 51.6686 47.0046 51.6686C47.2107 51.6686 47.4992 51.833 47.6641 52.0796C47.7878 52.2852 48.2412 52.1207 48.6534 51.7097C49.1069 51.2575 50.3435 50.8465 51.745 50.6821C53.0229 50.5177 54.0534 50.271 54.0534 50.1066C54.0122 49.6134 52.8168 48.1747 52.8168 48.6268Z" fill="#DEC802"/>
<path d="M51.9924 51.0931C51.9924 51.2164 53.0229 51.7508 54.2595 52.3263C56.2382 53.2306 57.1863 54.1349 56.197 54.1349C55.9908 54.1349 54.713 55.2447 53.3115 56.6012C50.9618 58.8619 48.6534 62.438 48.7359 63.6712C48.7359 63.9589 48.9008 63.8356 49.1069 63.3834L49.4779 62.5613V63.3834C49.5191 63.8767 49.9313 63.3423 50.5496 62.027C51.5389 59.8895 54.3832 56.7656 57.0214 54.9159C58.2168 54.0527 58.2992 54.0116 58.0107 54.7926C57.7634 55.4502 57.8046 55.4913 58.258 55.0392C58.9176 54.3815 58.258 53.806 54.7954 52.0385C52.3634 50.8054 51.9924 50.6821 51.9924 51.0931ZM56.4855 54.8337C54.3008 56.3956 51.8275 58.9441 50.7145 60.9172C50.055 62.027 49.5191 62.7669 49.5191 62.5202C49.5191 62.3147 50.055 61.2871 50.6733 60.2595C51.8687 58.3687 56.8977 53.5594 57.3099 53.9294C57.3924 54.0527 57.0626 54.4637 56.4855 54.8337Z" fill="#DEC802"/>
<path d="M11.5954 52.5318C10.8122 52.7784 11.0183 52.8195 12.3786 52.6962C13.3679 52.5729 14.2748 52.4085 14.3985 52.2852C14.7282 51.9563 12.7496 52.1207 11.5954 52.5318Z" fill="#DEC802"/>
<path d="M26.8061 52.6962C27.5069 54.0938 28.084 54.7925 28.084 54.2993C28.084 54.0116 27.713 53.395 27.2183 52.8606C26.5588 52.0796 26.4763 52.0385 26.8061 52.6962Z" fill="#DEC802"/>
<path d="M46.8809 53.9293C47.0458 54.2582 47.2107 54.5459 47.2931 54.5459C47.3756 54.5459 47.458 54.2582 47.458 53.9293C47.458 53.6005 47.2931 53.3128 47.0458 53.3128C46.8397 53.3128 46.7573 53.6005 46.8809 53.9293Z" fill="#DEC802"/>
<path d="M25.8168 55.368C26.229 55.8202 26.6412 56.1901 26.7649 56.1901C26.8886 56.1901 26.6412 55.8202 26.229 55.368C25.8168 54.9159 25.4046 54.5459 25.2809 54.5459C25.1573 54.5459 25.4046 54.9159 25.8168 55.368Z" fill="#DEC802"/>
<path d="M40.8626 55.3269C40.8626 55.5324 41.0687 55.8613 41.2748 55.9846C41.5221 56.1079 41.687 56.0668 41.687 55.8202C41.687 55.6146 41.5221 55.2858 41.2748 55.1625C41.0687 55.0392 40.8626 55.0803 40.8626 55.3269Z" fill="#DEC802"/>
<path d="M9.36947 55.8613C10.2763 57.4232 12.8733 61.1227 13.2031 61.2871C13.4092 61.4104 12.6672 60.1362 11.513 58.4509C10.4 56.7656 9.36947 55.368 9.2458 55.368C9.16336 55.368 9.20458 55.6146 9.36947 55.8613Z" fill="#DEC802"/>
<path d="M44.9023 56.4367C44.4901 57.341 44.4901 57.5877 45.026 57.9987C45.3969 58.2453 45.7679 58.7386 45.9328 59.0674C46.0977 59.4785 46.1802 59.3963 46.1802 58.7386C46.2214 58.2042 45.9741 57.8343 45.6031 57.8343C44.8611 57.8343 44.8199 57.2588 45.3969 56.149C45.6443 55.738 45.7267 55.368 45.6031 55.368C45.4794 55.368 45.1496 55.8613 44.9023 56.4367Z" fill="#DEC802"/>
<path d="M54.5893 57.9987C53.2702 59.4374 51.7863 61.3693 51.2504 62.3147L50.3023 64H59V62.9724C59 61.8214 58.1343 59.9717 56.8153 58.1631C55.9908 57.0533 55.9908 57.0122 56.7328 56.1901C57.145 55.738 57.3924 55.368 57.2275 55.368C57.1038 55.368 55.9084 56.56 54.5893 57.9987Z" fill="#DEC802"/>
<path d="M28.084 57.341C28.5786 58.0809 29.1145 58.6153 29.2382 58.4509C29.3618 58.3276 28.9496 57.711 28.2901 57.0944L27.1359 55.9846L28.084 57.341Z" fill="#DEC802"/>
<path d="M9.2458 57.6288C9.61679 58.2864 10.1939 59.2318 10.5649 59.684C10.9359 60.1362 10.8534 59.7662 10.3176 58.8619C9.20458 56.8478 8.38015 55.9024 9.2458 57.6288Z" fill="#DEC802"/>
<path d="M8.21527 57.711C8.50382 58.2042 8.17405 59.0674 6.81374 61.2049L5 64H8.91603C11.5542 64 12.8321 63.8356 12.8321 63.5478C12.8321 63.219 13.0794 63.2601 13.574 63.6301C14.2336 64.1644 14.2336 64.1233 13.6565 63.3834C12.4198 61.657 11.4718 60.7527 11.142 60.9583C10.9359 61.0816 10.1939 60.2184 9.45191 59.1085C8.25649 57.1766 7.34962 56.149 8.21527 57.711ZM12.8321 63.0135C12.8321 63.1779 12.4611 62.9724 12.0076 62.5613C11.5542 62.1503 11.1832 61.6159 11.1832 61.4104C11.1832 61.1638 11.5542 61.3693 12.0076 61.8626C12.4611 62.3558 12.8321 62.8491 12.8321 63.0135Z" fill="#DEC802"/>
<path d="M47.3756 57.3821C47.7878 57.6288 47.7466 57.9987 47.0458 59.1908C46.5512 60.054 45.9328 60.5883 45.6855 60.4239C45.4382 60.2595 45.397 60.3828 45.6031 60.7116C45.7679 60.9994 45.6855 61.3693 45.3557 61.5748C45.0672 61.7392 44.9023 62.027 45.0672 62.1503C45.2321 62.3147 46.0153 61.4104 46.8397 60.1773C48.2824 57.9987 48.4473 57.0122 47.3344 57.0122C47.0046 57.0122 47.0046 57.1355 47.3756 57.3821Z" fill="#DEC802"/>
<path d="M14.4809 62.9724C15.0168 63.5478 15.5527 64 15.6351 64C15.7588 64 15.429 63.5478 14.8931 62.9724C14.3573 62.3969 13.8214 61.9448 13.7389 61.9448C13.6153 61.9448 13.945 62.3969 14.4809 62.9724Z" fill="#DEC802"/>
</svg>
