<svg width="64" height="25" viewBox="0 0 64 25" fill="none" xmlns="http://www.w3.org/2000/svg">
<path d="M34.8631 0.0385438C32.6161 0.201386 32.5698 0.294439 34.3072 1.17844C35.9519 1.99266 35.8824 2.01592 33.7512 1.24823C31.9212 0.620125 28.8634 0.0850703 27.9831 0.247913C26.7554 0.480545 26.3848 1.24823 26.7091 2.87666C27.3809 6.11025 29.6742 9.04142 32.9404 10.7862C34.9558 11.8795 34.3998 11.8563 32.1297 10.7629C29.0719 9.29731 26.6628 6.27309 26.0373 3.10929L25.7593 1.73676H23.744C19.6901 1.73676 14.8487 3.10929 10.0767 5.62172C7.04212 7.20362 3.12726 9.83237 1.15824 11.6004L0 12.624L0.926594 12.4146C8.571 10.5535 14.0379 11.4841 17.6053 15.2527C18.3234 15.9971 18.9489 16.6252 19.0183 16.6252C19.0647 16.6252 19.111 15.6249 19.111 14.4152V12.2052H24.4158L25.6203 14.3454C26.2689 15.5319 26.8481 16.5322 26.8712 16.5787C26.9176 16.6252 27.4967 15.6482 28.1916 14.4385L29.4194 12.2052H35.0948V21.1616L36.2067 19.9519C36.8321 19.2772 37.805 18.5096 38.4073 18.2537C39.6814 17.6953 42.1137 17.3464 44.8703 17.3231H46.9088L46.515 16.4857C46.2139 15.8808 46.1907 15.5551 46.3529 15.276C46.654 14.8107 48.8778 14.2059 55.781 12.8101C58.5608 12.2285 61.2247 11.5771 61.688 11.3445C63.0779 10.6698 64.5141 7.57583 63.8192 6.73836C63.2864 6.08699 62.5219 6.31962 62.1281 7.25015C61.7575 8.08763 61.7575 7.97131 62.0818 6.59878C62.2208 6.0172 62.1281 5.97067 59.8348 5.04014C55.7578 3.43498 48.9473 1.59718 44.1291 0.829494C41.5578 0.410756 40.3763 0.294439 36.8321 0.0152806C36.3225 -0.00798268 35.4422 -0.00798268 34.8631 0.0385438ZM31.4115 3.38845C32.2686 3.78393 33.3111 4.48182 33.7512 4.92382L34.5156 5.73804L33.7512 5.36583L32.9868 4.97035L33.3574 5.66825C33.7512 6.4592 33.6817 6.52899 32.9636 6.13351C32.2686 5.7613 32.2223 6.0172 32.8941 6.83141C33.3806 7.38973 33.4269 7.55257 33.1489 7.55257C32.7319 7.55257 32.6624 7.90152 33.0099 8.13415C33.3342 8.34352 33.7512 9.181 33.5195 9.181C33.4269 9.181 32.6393 8.62268 31.8053 7.92478C30.0448 6.4592 28.377 4.10961 28.377 3.08603C28.377 2.41139 28.4233 2.38813 29.1182 2.52771C29.5352 2.5975 30.5544 2.99298 31.4115 3.38845ZM46.5845 4.50509C48.8315 4.94709 50.5457 5.34256 51.3102 5.59846C52.1209 5.87762 50.7774 6.15678 48.5767 6.18004C46.0981 6.18004 45.0556 5.87762 44.5924 4.99361C44.4534 4.73772 44.1754 4.52835 43.9437 4.52835C43.7352 4.52835 43.3878 4.41203 43.2025 4.29572C42.6233 3.9235 43.9669 4.01656 46.5845 4.50509ZM48.2987 12.275C45.3105 13.2986 44.6387 13.7871 44.546 15.0666L44.4534 16.0437L44.1754 15.3458C44.0132 14.9735 43.9206 14.4385 43.9901 14.1826C44.1522 13.5777 45.6116 12.7403 47.7196 12.0656C50.2677 11.2514 50.7542 11.4375 48.2987 12.275Z" fill="#DEC802"/>
<path d="M24.4389 21.6036V25H29.5352V21.6268C29.5352 19.7658 29.4889 18.2537 29.4425 18.2537C29.3962 18.2537 28.8634 19.0446 28.238 19.9984C27.6125 20.9522 27.0566 21.7431 26.9871 21.7431C26.9176 21.7431 26.4079 21.022 25.852 20.1147C25.3192 19.2307 24.7632 18.4398 24.6474 18.3467C24.5316 18.2769 24.4389 19.6262 24.4389 21.6036Z" fill="#DEC802"/>
</svg>
